#!OML:ASF G:\JayActor3\Patient Classification 1\Patient 1\Session 5\male.ASF
:FULLY-SPECIFIED
:DEGREES
511
root 29.9319 16.4175 -5.30156 868.015 95.3186 872
lowerback 1.05188 -0.15178 1.25127
upperback 2.40942 -0.160319 -1.22108
thorax 1.87301 -0.0339074 -1.95445
lowerneck -12.0667 1.00642 3.48348
upperneck 19.0708 0.920817 -0.272356
head 7.90136 0.738491 -0.564026
rclavicle -6.47293e-015 -3.18055e-015
rhumerus -30.9027 -11.5551 -85.1193
rradius 20.1491
rwrist 12.9373
rhand -17.354 -4.92389
rfingers 7.12502
rthumb 8.89375 -34.7165
lclavicle -6.47293e-015 -3.18055e-015
lhumerus -27.4642 8.34811 81.8548
lradius 23.1986
lwrist 10.7168
lhand -17.7089 12.639
lfingers 7.12502
lthumb 8.55131 42.4459
rfemur -16.2203 1.06411 23.0369
rtibia 70.1388
rfoot -12.9621 -15.0493
rtoes -1.21283
lfemur -6.40299 9.73875 -22.3174
ltibia 26.0485
lfoot -14.6844 6.31095
ltoes -3.37216
512
root 30.0647 16.405 -5.30426 867.839 95.0629 871.878
lowerback 1.10621 -0.263785 1.04655
upperback 2.46626 -0.308024 -1.19672
thorax 1.89543 -0.110638 -1.81522
lowerneck -12.0951 1.00753 3.45819
upperneck 19.1315 0.9258 -0.265699
head 7.92651 0.740705 -0.556904
rclavicle -6.62201e-015 -1.03368e-014
rhumerus -31.1708 -11.3063 -85.1005
rradius 20.4985
rwrist 12.1546
rhand -17.2865 -4.9936
rfingers 7.12502
rthumb 8.95884 -34.7834
lclavicle -6.62201e-015 -1.03368e-014
lhumerus -26.9616 7.47117 82.2042
lradius 23.9355
lwrist 11.261
lhand -17.6267 12.7678
lfingers 7.12502
lthumb 8.63059 42.5714
rfemur -17.2445 1.40225 23.0008
rtibia 69.5454
rfoot -14.1282 -14.9155
rtoes -2.21932
lfemur -5.87726 9.71712 -22.4072
ltibia 26.1305
lfoot -15.1189 6.17043
ltoes -3.64192
513
root 30.1967 16.3909 -5.30722 867.584 94.8171 871.666
lowerback 1.16636 -0.369277 0.86278
upperback 2.51589 -0.447298 -1.17235
thorax 1.90856 -0.183044 -1.68757
lowerneck -12.1038 1.00372 3.43519
upperneck 19.1562 0.924212 -0.261377
head 7.93609 0.739072 -0.551756
rclavicle 4.13721e-015 5.56597e-015
rhumerus -31.4517 -11.0215 -85.106
rradius 20.8772
rwrist 11.3383
rhand -17.2476 -5.05063
rfingers 7.12502
rthumb 8.99646 -34.8388
lclavicle 4.13721e-015 5.56597e-015
lhumerus -26.47 6.60744 82.5218
lradius 24.6794
lwrist 11.7572
lhand -17.5319 12.8985
lfingers 7.12502
lthumb 8.7221 42.6982
rfemur -18.2424 1.75663 22.9676
rtibia 68.823
rfoot -15.1405 -14.9077
rtoes -3.09009
lfemur -5.37475 9.69317 -22.4869
ltibia 26.2368
lfoot -15.5587 6.04528
ltoes -3.91941
514
root 30.3283 16.3755 -5.31019 867.301 94.5781 871.414
lowerback 1.22795 -0.465484 0.693332
upperback 2.5576 -0.574429 -1.15122
thorax 1.91402 -0.249298 -1.57107
lowerneck -12.0888 0.992816 3.41524
upperneck 19.1423 0.91202 -0.254217
head 7.92834 0.732234 -0.547438
rclavicle -1.95057e-015 -2.38542e-015
rhumerus -31.7459 -10.724 -85.1296
rradius 21.2765
rwrist 10.5269
rhand -17.2586 -5.07376
rfingers 7.12502
rthumb 8.98578 -34.8624
lclavicle -1.95057e-015 -2.38542e-015
lhumerus -25.9867 5.73608 82.8159
lradius 25.4194
lwrist 12.2447
lhand -17.4846 12.932
lfingers 7.12502
lthumb 8.76774 42.7298
rfemur -19.2141 2.12426 22.9296
rtibia 67.9769
rfoot -16.0152 -14.9998
rtoes -3.78571
lfemur -4.88848 9.66165 -22.5629
ltibia 26.3499
lfoot -15.9992 5.94023
ltoes -4.19537
515
root 30.4595 16.3597 -5.31291 867.017 94.3498 871.15
lowerback 1.28873 -0.552318 0.531499
upperback 2.59607 -0.689259 -1.13059
thorax 1.91775 -0.309355 -1.4592
lowerneck -12.0541 0.977553 3.39487
upperneck 19.0879 0.893433 -0.24431
head 7.90345 0.721843 -0.542953
rclavicle -2.6339e-015 -1.35174e-014
rhumerus -32.0448 -10.4204 -85.1666
rradius 21.6853
rwrist 9.75169
rhand -17.3234 -5.0569
rfingers 7.12502
rthumb 8.92331 -34.8482
lclavicle -2.6339e-015 -1.35174e-014
lhumerus -25.5001 4.87642 83.085
lradius 26.1474
lwrist 12.6877
lhand -17.4629 12.9537
lfingers 7.12502
lthumb 8.78867 42.7507
rfemur -20.154 2.50255 22.885
rtibia 67.0109
rfoot -16.7857 -15.1457
rtoes -4.36059
lfemur -4.40167 9.61779 -22.6351
ltibia 26.4464
lfoot -16.4404 5.85974
ltoes -4.43716
516
root 30.5906 16.3441 -5.3153 866.824 94.1201 870.968
lowerback 1.34256 -0.631126 0.365463
upperback 2.63476 -0.793398 -1.11471
thorax 1.92664 -0.364103 -1.34982
lowerneck -12.0152 0.958356 3.37486
upperneck 19.0048 0.868186 -0.231183
head 7.86824 0.70802 -0.538214
rclavicle 6.21202e-016 -9.54166e-015
rhumerus -32.3423 -10.1311 -85.21
rradius 22.0967
rwrist 9.05351
rhand -17.4156 -5.01379
rfingers 7.12502
rthumb 8.83429 -34.8089
lclavicle 6.21202e-016 -9.54166e-015
lhumerus -25.0027 4.0352 83.3285
lradius 26.8581
lwrist 13.0852
lhand -17.4641 12.9964
lfingers 7.12502
lthumb 8.78747 42.7935
rfemur -21.0593 2.88394 22.8152
rtibia 65.9283
rfoot -17.4806 -15.2782
rtoes -4.67653
lfemur -3.89472 9.5637 -22.7153
ltibia 26.4891
lfoot -16.8652 5.79333
ltoes -4.63401
517
root 30.7219 16.3297 -5.31703 866.723 93.8882 870.868
lowerback 1.38847 -0.701127 0.191744
upperback 2.67467 -0.885753 -1.10298
thorax 1.94225 -0.413066 -1.24042
lowerneck -11.9753 0.935353 3.34837
upperneck 18.9006 0.836368 -0.207109
head 7.82568 0.691218 -0.52949
rclavicle 1.8313e-014 1.90833e-014
rhumerus -32.6348 -9.86914 -85.2527
rradius 22.5067
rwrist 8.4497
rhand -17.5122 -4.96043
rfingers 7.12502
rthumb 8.74112 -34.7594
lclavicle 1.8313e-014 1.90833e-014
lhumerus -24.4887 3.22323 83.5444
lradius 27.539
lwrist 13.4254
lhand -17.4706 13.0882
lfingers 7.12502
lthumb 8.78121 42.8855
rfemur -21.9228 3.26183 22.7201
rtibia 64.7311
rfoot -18.1288 -15.3511
rtoes -4.88342
lfemur -3.3483 9.50367 -22.8
ltibia 26.4446
lfoot -17.2614 5.7289
ltoes -4.77734
518
root 30.8542 16.3172 -5.31812 867.022 93.6365 871.171
lowerback 1.42683 -0.764181 -0.0158689
upperback 2.72038 -0.968445 -1.10288
thorax 1.96925 -0.457654 -1.12409
lowerneck -11.9402 0.909544 3.32271
upperneck 18.7815 0.798925 -0.177985
head 7.77901 0.67192 -0.519809
rclavicle 9.46712e-015 7.95139e-015
rhumerus -32.9243 -9.64636 -85.2906
rradius 22.9122
rwrist 7.94943
rhand -17.5856 -4.92572
rfingers 7.12502
rthumb 8.67026 -34.7277
lclavicle 9.46712e-015 7.95139e-015
lhumerus -23.959 2.4397 83.7325
lradius 28.1739
lwrist 13.7349
lhand -17.4975 13.0936
lfingers 7.12502
lthumb 8.75529 42.892
rfemur -22.7246 3.61785 22.5681
rtibia 63.4231
rfoot -18.7069 -15.3492
rtoes -5.0263
lfemur -2.73113 9.45392 -22.9121
ltibia 26.2839
lfoot -17.617 5.64835
ltoes -4.88468
519
root 30.9871 16.3075 -5.31835 867.639 93.3774 871.787
lowerback 1.45728 -0.818539 -0.244139
upperback 2.76789 -1.03928 -1.11021
thorax 2.00362 -0.496687 -1.00396
lowerneck -11.9112 0.879217 3.29844
upperneck 18.6552 0.753368 -0.142777
head 7.73102 0.649247 -0.509158
rclavicle 1.55052e-014 1.11319e-014
rhumerus -33.2086 -9.46641 -85.3237
rradius 23.3062
rwrist 7.54554
rhand -17.6402 -4.90581
rfingers 7.12502
rthumb 8.61755 -34.7099
lclavicle 1.55052e-014 1.11319e-014
lhumerus -23.4126 1.6982 83.89
lradius 28.7686
lwrist 13.9843
lhand -17.5117 13.1112
lfingers 7.12502
lthumb 8.74156 42.9102
rfemur -23.4736 3.95717 22.3778
rtibia 62.0062
rfoot -19.2103 -15.2769
rtoes -5.0415
lfemur -2.046 9.42555 -23.0313
ltibia 25.9922
lfoot -17.9173 5.54026
ltoes -4.96798
520
root 31.1204 16.301 -5.31754 868.366 93.1325 872.499
lowerback 1.47737 -0.861639 -0.470615
upperback 2.81101 -1.09514 -1.11751
thorax 2.04005 -0.52838 -0.884929
lowerneck -11.8894 0.847558 3.27743
upperneck 18.5276 0.704337 -0.10394
head 7.68395 0.625416 -0.498162
rclavicle -5.41688e-015 -7.95139e-015
rhumerus -33.4887 -9.3248 -85.3544
rradius 23.6816
rwrist 7.21346
rhand -17.6923 -4.88383
rfingers 7.12502
rthumb 8.56725 -34.69
lclavicle -5.41688e-015 -7.95139e-015
lhumerus -22.8531 1.00468 84.0194
lradius 29.3233
lwrist 14.1731
lhand -17.5391 13.1529
lfingers 7.12502
lthumb 8.71514 42.953
rfemur -24.1809 4.28812 22.184
rtibia 60.4882
rfoot -19.5931 -15.2081
rtoes -5.01823
lfemur -1.30576 9.42163 -23.1309
ltibia 25.5673
lfoot -18.1509 5.40721
ltoes -5.0414
521
root 31.2537 16.2975 -5.31582 869.104 92.9082 873.206
lowerback 1.4865 -0.896171 -0.686712
upperback 2.84865 -1.13968 -1.12136
thorax 2.07742 -0.554455 -0.768324
lowerneck -11.8682 0.815525 3.25789
upperneck 18.396 0.654291 -0.0638019
head 7.63574 0.601219 -0.487071
rclavicle -4.5472e-015 3.18055e-015
rhumerus -33.7625 -9.20138 -85.389
rradius 24.0327
rwrist 6.92246
rhand -17.7363 -4.86753
rfingers 7.12502
rthumb 8.52483 -34.6755
lclavicle -4.5472e-015 3.18055e-015
lhumerus -22.2887 0.359943 84.1254
lradius 29.8394
lwrist 14.3278
lhand -17.5928 13.1605
lfingers 7.12502
lthumb 8.66332 42.9627
rfemur -24.8485 4.60942 21.9986
rtibia 58.8805
rfoot -19.8898 -15.1469
rtoes -4.82578
lfemur -0.520141 9.44853 -23.2009
ltibia 25.0248
lfoot -18.3237 5.24444
ltoes -5.1105
522
root 31.3867 16.2964 -5.31319 869.535 92.7116 873.582
lowerback 1.48249 -0.92095 -0.873254
upperback 2.8751 -1.17155 -1.11912
thorax 2.11061 -0.573921 -0.662143
lowerneck -11.8399 0.782011 3.23842
upperneck 18.256 0.601084 -0.0157401
head 7.58357 0.57613 -0.473719
rclavicle 7.05686e-015 -4.77083e-015
rhumerus -34.0322 -9.10645 -85.4258
rradius 24.3553
rwrist 6.66236
rhand -17.7761 -4.84845
rfingers 7.12502
rthumb 8.48642 -34.6579
lclavicle 7.05686e-015 -4.77083e-015
lhumerus -21.7271 -0.257868 84.2167
lradius 30.3162
lwrist 14.4728
lhand -17.7146 13.0646
lfingers 7.12502
lthumb 8.54575 42.8717
rfemur -25.4932 4.92423 21.8444
rtibia 57.1988
rfoot -20.0675 -15.1689
rtoes -4.49617
lfemur 0.290479 9.49978 -23.2261
ltibia 24.3813
lfoot -18.4316 5.06016
ltoes -5.20495
523
root 31.5194 16.2972 -5.30973 869.5 92.5445 873.471
lowerback 1.47203 -0.936827 -1.02457
upperback 2.88981 -1.19202 -1.10965
thorax 2.13498 -0.587259 -0.568223
lowerneck -11.8051 0.746539 3.21647
upperneck 18.1119 0.544827 0.0394258
head 7.52893 0.550017 -0.457931
rclavicle 2.43511e-015 3.97569e-015
rhumerus -34.295 -9.0282 -85.4655
rradius 24.6418
rwrist 6.41738
rhand -17.8089 -4.8301
rfingers 7.12502
rthumb 8.45473 -34.6409
lclavicle 2.43511e-015 3.97569e-015
lhumerus -21.1703 -0.834765 84.2924
lradius 30.7615
lwrist 14.5511
lhand -17.8556 12.9967
lfingers 7.12502
lthumb 8.40974 42.8093
rfemur -26.1104 5.23114 21.7287
rtibia 55.4601
rfoot -20.1628 -15.2853
rtoes -4.08265
lfemur 1.12373 9.57406 -23.2043
ltibia 23.6502
lfoot -18.4886 4.865
ltoes -5.32383
524
root 31.6521 16.2991 -5.30577 869.224 92.3877 873.109
lowerback 1.45189 -0.947788 -1.15907
upperback 2.8981 -1.20602 -1.09888
thorax 2.15798 -0.597147 -0.48248
lowerneck -11.7639 0.710725 3.19741
upperneck 17.9613 0.487946 0.0949908
head 7.47116 0.5237 -0.442557
rclavicle 5.1684e-015 -2.38542e-015
rhumerus -34.5491 -8.96948 -85.5056
rradius 24.8921
rwrist 6.18475
rhand -17.8277 -4.82181
rfingers 7.12502
rthumb 8.43665 -34.6333
lclavicle 5.1684e-015 -2.38542e-015
lhumerus -20.6171 -1.36558 84.3551
lradius 31.1784
lwrist 14.5436
lhand -17.9947 13.0173
lfingers 7.12502
lthumb 8.27544 42.8352
rfemur -26.6944 5.51624 21.6256
rtibia 53.6836
rfoot -20.1938 -15.4819
rtoes -3.52786
lfemur 1.98925 9.66785 -23.1601
ltibia 22.834
lfoot -18.4997 4.65874
ltoes -5.4658
